<?xml version="1.0" ?><!DOCTYPE svg  PUBLIC '-//W3C//DTD SVG 1.1//EN'  'http://www.w3.org/Graphics/SVG/1.1/DTD/svg11.dtd'><svg height="8.4666mm" style="shape-rendering:geometricPrecision; text-rendering:geometricPrecision; image-rendering:optimizeQuality; fill-rule:evenodd; clip-rule:evenodd" version="1.1" viewBox="0 0 846.66 846.66" width="8.4666mm" xml:space="preserve" xmlns="http://www.w3.org/2000/svg" xmlns:xlink="http://www.w3.org/1999/xlink"><defs><style type="text/css">
   <![CDATA[
    .fil0 {fill:black;fill-rule:nonzero}
   ]]>
  </style></defs><g id="Layer_x0020_1"><path class="fil0" d="M294.17 754.6l-235.4 0c-11.44,0 -20.71,-9.27 -20.71,-20.71l0 -704.11c0,-11.43 9.27,-20.71 20.71,-20.71l494.5 0c11.44,0 20.72,9.28 20.72,20.71l0 399.33 213.9 0c11.44,0 20.71,9.27 20.71,20.71l0 367.06c0,11.43 -9.27,20.71 -20.71,20.71l-473.01 0c-11.44,0 -20.71,-9.28 -20.71,-20.71l0 -62.28zm62.33 -572.11c-27.24,0 -27.24,-41.42 0,-41.42l102.17 0c27.24,0 27.24,41.42 0,41.42l-102.17 0zm0 79.47c-27.24,0 -27.24,-41.42 0,-41.42l102.17 0c27.24,0 27.24,41.42 0,41.42l-102.17 0zm18.75 208.57l176.13 136.68 176.14 -136.68 -352.27 0zm391.93 21.5l-202.83 157.39c-7.27,5.87 -17.87,6.23 -25.59,0.27l-203.17 -157.66 0 304.14 431.59 0 0 -304.14zm-234.62 -62.92l0 -378.62 -453.08 0 0 662.69 214.69 0 0 -263.36c0,-11.44 9.27,-20.71 20.71,-20.71l217.68 0zm-390.07 -327.73l139.53 0c11.44,0 20.71,9.27 20.71,20.71l0 158.85c0,11.44 -9.27,20.71 -20.71,20.71l-139.53 0c-11.44,0 -20.72,-9.27 -20.72,-20.71l0 -158.85c0,-11.44 9.28,-20.71 20.72,-20.71zm118.82 41.42l-98.11 0 0 117.43 98.11 0 0 -117.43z"/></g></svg>